<?xml version="1.0" standalone="no"?>
<svg viewBox="0 0 200 200" xmlns="http://www.w3.org/2000/svg">
  <path fill="#83C3F2" d="M31.7,-59.5C40.6,-49.7,47.1,-40.3,54.6,-30.5C62,-20.6,70.5,-10.3,72.7,1.3C75,12.9,71.1,25.8,62.7,34.1C54.3,42.3,41.4,45.9,30.2,54.8C19,63.7,9.5,77.9,-2,81.3C-13.4,84.7,-26.9,77.2,-37.6,68.1C-48.4,58.9,-56.5,48.1,-58.2,36.5C-60,24.9,-55.4,12.4,-55.4,0C-55.5,-12.5,-60.3,-25.1,-58.7,-36.9C-57,-48.7,-49,-59.7,-38.1,-68.4C-27.3,-77.1,-13.6,-83.4,-1.1,-81.4C11.4,-79.5,22.8,-69.3,31.7,-59.5Z" transform="translate(100 100)" />
</svg>
