<svg id="_0516_data_and_settings" xmlns="http://www.w3.org/2000/svg" xmlns:xlink="http://www.w3.org/1999/xlink" viewBox="0 0 500 500" data-imageid="data-settings-55" imageName="Data Settings" class="illustrations_image" style="width: 144px;"><defs><style>.cls-1_data-settings-55{fill:#020202;opacity:.1;}.cls-1_data-settings-55,.cls-2_data-settings-55,.cls-3_data-settings-55,.cls-4_data-settings-55{isolation:isolate;}.cls-1_data-settings-55,.cls-2_data-settings-55,.cls-3_data-settings-55,.cls-4_data-settings-55,.cls-5_data-settings-55,.cls-6_data-settings-55,.cls-7_data-settings-55,.cls-8_data-settings-55,.cls-9_data-settings-55,.cls-10_data-settings-55,.cls-11_data-settings-55,.cls-12_data-settings-55,.cls-13_data-settings-55,.cls-14_data-settings-55,.cls-15_data-settings-55{stroke-width:0px;}.cls-2_data-settings-55{opacity:.18;}.cls-2_data-settings-55,.cls-4_data-settings-55,.cls-15_data-settings-55{fill:#68e1fd;}.cls-3_data-settings-55{opacity:.28;}.cls-3_data-settings-55,.cls-13_data-settings-55{fill:#fff;}.cls-16_data-settings-55{stroke:#fff;stroke-width:1.48px;}.cls-16_data-settings-55,.cls-17_data-settings-55{fill:none;stroke-miterlimit:10;}.cls-4_data-settings-55{opacity:.41;}.cls-5_data-settings-55{fill:url(#linear-gradient-4-data-settings-55);}.cls-6_data-settings-55{fill:url(#linear-gradient-2-data-settings-55);}.cls-7_data-settings-55{fill:url(#linear-gradient-3-data-settings-55);}.cls-8_data-settings-55{fill:url(#linear-gradient-5-data-settings-55);}.cls-9_data-settings-55{fill:url(#linear-gradient-6-data-settings-55);}.cls-10_data-settings-55{fill:#f9692d;}.cls-11_data-settings-55{fill:#473f47;}.cls-12_data-settings-55{fill:#de9f93;}.cls-14_data-settings-55{fill:#fdb9a9;}.cls-17_data-settings-55{stroke:url(#linear-gradient);stroke-width:.65px;}</style><linearGradient id="linear-gradient-data-settings-55" x1="2090.95" y1="2796.78" x2="2263.02" y2="2659.36" gradientTransform="translate(2555.62 2968.08) rotate(-180) scale(1.09 1)" gradientUnits="userSpaceOnUse"><stop offset="0" stop-color="#fff"/><stop offset="1" stop-color="#cacaca"/></linearGradient><linearGradient id="linear-gradient-2-data-settings-55" x1="2196.93" y1="2848.67" x2="2196.84" y2="2837.14" gradientTransform="translate(2555.62 2968.09) rotate(-180) scale(1.09 1)" xlink:href="#linear-gradient-data-settings-55"/><linearGradient id="linear-gradient-3-data-settings-55" x1="2207.92" y1="2845.48" x2="2208.57" y2="2837.06" gradientTransform="translate(2527.54 2991.33) rotate(-179.47) scale(1.09 1) skewX(-.04)" xlink:href="#linear-gradient-data-settings-55"/><linearGradient id="linear-gradient-4-data-settings-55" x1="845.19" y1="3028.3" x2="910.88" y2="2877.87" gradientTransform="translate(-471 3343.65) scale(1 -1)" gradientUnits="userSpaceOnUse"><stop offset="0" stop-color="#231f20"/><stop offset=".08" stop-color="#231f20" stop-opacity=".69"/><stop offset=".21" stop-color="#231f20" stop-opacity=".32"/><stop offset="1" stop-color="#231f20" stop-opacity="0"/></linearGradient><linearGradient id="linear-gradient-5-data-settings-55" x1="-2048.58" y1="2142.52" x2="-2158.04" y2="2049.3" gradientTransform="translate(1110.04 3197.43) rotate(30.5) scale(1 -1)" gradientUnits="userSpaceOnUse"><stop offset="0" stop-color="#000"/><stop offset=".13" stop-color="#000" stop-opacity=".69"/><stop offset=".25" stop-color="#000" stop-opacity=".32"/><stop offset="1" stop-color="#000" stop-opacity="0"/></linearGradient><linearGradient id="linear-gradient-6-data-settings-55" x1="-552.92" y1="2061.06" x2="-388.12" y2="2213.37" gradientTransform="translate(-260.51 2390.22) rotate(30.5) scale(1 -1)" xlink:href="#linear-gradient-5-data-settings-55"/></defs><g id="background_data-settings-55"><path class="cls-2_data-settings-55 targetColor" d="M104.64,428.6c-16.78-2.77-32.58-9.77-45.9-20.35-15.66-12.33-32.71-28.95-32.18-49.57.55-21.86,8.72-42.91,17.57-62.64,11.96-26.57,28.61-54.62,24.2-84.25-4.35-29.16,1.51-65.07,17.11-90.2,24.66-39.49,67.82-49.11,110.97-50,28.51-.59,57.86,1.08,83.85,12.85,27.31,12.33,49.17,35.11,77.07,45.72,18.5,6.97,38.72,8.32,56.81,16.18,22.78,9.9,40.35,29.5,51.73,51.57,11.37,22.07,17.17,46.58,21.58,70.9,7.21,41.12-9.93,92.48-34.62,126.17-16.46,22.38-44.02,48.3-72.35,42.88-144.24-27.5-116.52,16.46-275.83-9.28Z" style="fill: rgb(104, 225, 253);"/></g><g id="phone_data-settings-55"><path class="cls-15_data-settings-55 targetColor" d="M96.72,146.85v211.87c.45,9.57,8.56,16.97,18.13,16.55h96.86c9.58.38,17.68-7.04,18.13-16.62v-211.81c-.43-9.58-8.55-16.99-18.12-16.55,0,0,0,0,0,0h-96.86c-9.56-.4-17.66,6.99-18.13,16.55ZM105.97,147c.27-5.91,5.25-10.49,11.16-10.27h13.5v1.23c.17,3.78,3.36,6.7,7.14,6.54,0,0,0,0,.01,0h52.07c3.77.16,6.97-2.76,7.15-6.54v-1.26h14.12c5.88-.31,10.9,4.2,11.22,10.08,0,.02,0,.04,0,.06v211.25c-.27,5.9-5.26,10.48-11.16,10.23l-94.14.15c-5.83.21-10.75-4.29-11.07-10.11v-211.37Z" style="fill: rgb(104, 225, 253);"/><path class="cls-13_data-settings-55" d="M92.07,151.32v211.87c.45,9.57,8.56,16.97,18.13,16.55h96.89c9.57.37,17.66-7.04,18.13-16.62v-212.02c-.43-9.58-8.54-17-18.13-16.58l-96.89.15c-9.59-.38-17.69,7.06-18.13,16.65ZM101.31,151.32c.27-5.9,5.26-10.48,11.16-10.23h13.66v1.26c.17,3.76,3.35,6.67,7.11,6.51.02,0,.03,0,.05,0h52.07c3.78.14,6.97-2.79,7.15-6.57v-1.23h14.12c5.9-.26,10.89,4.31,11.16,10.2v211.37c-.27,5.9-5.26,10.48-11.16,10.23h-94.14c-5.9.26-10.9-4.31-11.16-10.21,0,0,0-.01,0-.02v-211.31Z"/><path class="cls-17_data-settings-55" d="M101.31,151.47v211.16c.27,5.9,5.26,10.46,11.16,10.2h94.14c5.89.24,10.88-4.31,11.16-10.2v-211.34c-.27-5.9-5.26-10.46-11.16-10.2h-14.12v1.23c-.18,3.78-3.37,6.71-7.15,6.57h-52.07c-3.76.19-6.96-2.7-7.15-6.46,0-.02,0-.03,0-.05v-1.26h-13.66c-5.92-.24-10.91,4.36-11.16,10.28,0,.03,0,.05,0,.08Z"/><path class="cls-15_data-settings-55 targetColor" d="M101.31,151.47v211.16c.27,5.9,5.26,10.46,11.16,10.2h94.14c5.89.24,10.88-4.31,11.16-10.2v-211.34c-.27-5.9-5.26-10.46-11.16-10.2h-14.12v1.23c-.18,3.78-3.37,6.71-7.15,6.57h-52.07c-3.76.19-6.96-2.7-7.15-6.46,0-.02,0-.03,0-.05v-1.26h-13.66c-5.92-.24-10.91,4.36-11.16,10.28,0,.03,0,.05,0,.08Z" style="fill: rgb(104, 225, 253);"/><rect class="cls-3_data-settings-55" x="126.38" y="251.07" width="55.8" height="55.8"/><rect class="cls-3_data-settings-55" x="120.55" y="206.16" width="83.57" height="20.41"/><rect class="cls-3_data-settings-55" x="120.55" y="176.01" width="83.57" height="20.41"/><polygon class="cls-6_data-settings-55" points="152.24 144.38 170.12 144.35 170.12 142.9 152.24 142.93 152.24 144.38"/><ellipse class="cls-7_data-settings-55" cx="147.52" cy="143.41" rx="1.94" ry="1.79" transform="translate(-1.39 1.45) rotate(-.56)"/></g><g id="character_data-settings-55"><path class="cls-14_data-settings-55" d="M293.24,364.7c.48,1.5.63,3.09.43,4.65-.39,1.5-1.21,2.86-2.37,3.88-2.51,2.34-5.82,3.62-9.25,3.58-.45.03-.9-.11-1.26-.37-.25-.23-.41-.53-.46-.86-.26-1.79.17-3.61,1.2-5.09,1.03-1.47,1.8-3.11,2.28-4.84.62-3.3-2.65-10.7,3.08-11,5.09-.28,5.55,6.78,6.35,10.05Z"/><path class="cls-15_data-settings-55 targetColor" d="M295.46,369.72s1.33,1.7.68,3.08-8.69,10.23-16.71,7.21c-8.01-3.02,7.4-8.08,7.4-8.08l8.63-2.22Z" style="fill: rgb(104, 225, 253);"/><path class="cls-13_data-settings-55" d="M293.82,365.38c-.7-.12-1.39.28-1.63.96-.88,1.87-2.66,3.15-4.72,3.39-2.28,0-3.85-2.16-4.93-1.85-2.59,2.38-4.39,5.5-5.15,8.94.28,2.16,3.64,2.87,6.91,2.16,4.22-1.27,7.99-3.73,10.85-7.09.66-2.25.17-4.69-1.33-6.5Z"/><path class="cls-14_data-settings-55" d="M319.81,368.95c.8,1.51,1.26,3.19,1.33,4.9-.11,1.69-.75,3.31-1.82,4.62-2.21,2.95-5.46,4.94-9.09,5.55-.47.17-.98.17-1.45,0-.29-.21-.51-.5-.65-.83-.6-1.88-.48-3.91.34-5.7.84-1.78,1.36-3.68,1.54-5.64,0-3.67-4.84-11,1.36-12.33,5.15-1.45,6.97,6.2,8.45,9.43Z"/><path class="cls-15_data-settings-55 targetColor" d="M323.14,373.91s1.76,1.57,1.33,3.08-7.46,12.67-16.62,10.88,6.41-10.05,6.41-10.05l8.88-3.91Z" style="fill: rgb(104, 225, 253);"/><path class="cls-13_data-settings-55" d="M320.58,369.57c-.78,0-1.45.55-1.57,1.33-.62,2.17-2.31,3.86-4.47,4.5-2.44.55-4.53-1.57-5.64-1.05s-4.53,8.29-3.82,10.57,4.41,2.44,7.8,1.05c3.39-1.39,9.77-7.27,10.36-9.68.28-2.54-.71-5.06-2.65-6.72Z"/><path class="cls-11_data-settings-55" d="M296.84,288.99c-.18,2.71-5.27,7.12-6.91,9.25-2.59,3.7-4.96,7.52-7.27,11.41-1.98,3.08-3.56,6.39-4.72,9.86-.79,3.02-1.2,6.13-1.23,9.25-.49,10.88.43,22.26,5.89,31.69.35.7.89,1.28,1.57,1.66.49.16,1,.22,1.51.18h5.24c.75.22,1.54-.21,1.76-.96.07-.23.08-.47.03-.71v-20.93c-.06-1.23.06-2.47.34-3.67.43-1.24,1.05-2.41,1.85-3.45,1.97-2.81,4.13-5.48,6.47-7.98,4.38-4.19,8.5-8.65,12.33-13.35,3.02-4.21,4.74-9.22,4.93-14.4,0-1.85,1.11-3.08-.46-4.25-1.15-.4-2.36-.62-3.58-.65-5.92-1.02-11.9-1.79-17.76-2.96Z"/><path class="cls-11_data-settings-55" d="M314.2,292.29c0,2.71-4.41,7.68-5.76,10.14-2.13,3.98-4.07,8.08-5.89,12.33-1.62,3.28-2.81,6.75-3.55,10.33-.43,3.06-.49,6.17-.18,9.25.33,5.81,1.3,11.57,2.9,17.17.79,2.77,1.83,5.46,3.08,8.05.67,1.3,1.41,2.57,2.22,3.79.62.96,1.02,2.59,1.88,3.27.66.42,1.44.61,2.22.52,1.04.06,2.08-.05,3.08-.31,4.28-1.23,3.88-5.46,3.45-8.94l-1.73-14.55c-.19-1.23-.19-2.47,0-3.7.28-1.28.77-2.51,1.45-3.64,1.63-3.01,3.47-5.9,5.49-8.66,3.87-4.67,7.44-9.58,10.7-14.7,2.46-4.54,3.54-9.71,3.08-14.86,0-1.88.74-3.33-.92-4.16-1.2-.28-2.44-.37-3.67-.28-5.89-.46-11.87-.55-17.85-1.05Z"/><path class="cls-15_data-settings-55 targetColor" d="M282.26,260.51c0,2.4.92,4.47,3.08,5.18h.55c3.82.74,8.82-2.16,12.33-4.69,1.41-.99,2.77-2.05,4.07-3.18v-25.59l-18.5,19.02c-1,2.98-1.52,6.1-1.54,9.25Z" style="fill: rgb(104, 225, 253);"/><path class="cls-15_data-settings-55 targetColor" d="M297.98,261.06c0,1.2-.15,2.4-.15,3.61,0,6.63,1.54,13.41-.43,19.91-.66,1.37-.86,2.92-.55,4.41.56,1.2,1.55,2.14,2.77,2.65,6.01,2.84,12.49,4.56,19.11,5.09,4.93.71,11.96,2.16,16.52-.49,1.74-1.29,2.9-3.22,3.24-5.36,1.75-6.82,2.78-13.8,3.08-20.84l.18-2.74c.37-6.17.49-12.67.37-18.99.39-4.61-.83-9.2-3.45-13.01-4.81-4.64-10.94-7.7-17.54-8.75-1.9-.4-3.86-.52-5.8-.34-2.73.45-5.36,1.34-7.8,2.65-2.89.98-5.34,2.95-6.94,5.55-1.51,3.33-2.55,6.86-3.08,10.48-.62,3.38-.77,6.84-.43,10.27,0,1.66.59,3.36.77,5.02.09.28.12.74.12.89Z" style="fill: rgb(104, 225, 253);"/><path class="cls-1_data-settings-55" d="M322.49,250.86c-1.3-.64-2.31-1.74-2.84-3.08-.51-1.33-.94-2.69-1.26-4.07-.84-2.85-2.16-5.53-3.91-7.92-1.02-1.62-2.53-2.87-4.32-3.58-1.84-.54-3.83-.1-5.27,1.17-2.19,2.03-1.7,4.81-1.39,7.43,1.33,10.97,8.08,20.41,13.96,29.78,1.18,1.85,2.21,3.78,3.08,5.8,1.52,4.98,2.76,10.04,3.7,15.17.52,1.73-.89,5.06-.18,6.35.17.29.45.5.77.59,1.91.55,6.17-1.2,7.8-1.45.86,0,1.66-.59,2.53-.8,4.38-1.11,4.9-13.41,5.33-16.71,1.53-8.79,2.56-17.66,3.08-26.57.18-3.38-.21-6.77-1.17-10.02-1.01-3.28-3.41-5.94-6.57-7.27-4.32-1.57-5.92,7.71-6.44,10.2-.24,2.53-.68,5.03-1.29,7.49-1.36,3.48-5.73-.89-7.24-2.9s-3.08-5.18-4.69-7.61c-2.42-2.51-5.24-4.59-8.35-6.17-.48-.4-1.05-.68-1.66-.8-1.11-.02-2.11.68-2.47,1.73-.11.31-.2.63-.25.96"/><path class="cls-14_data-settings-55" d="M311.49,221.05c.71.76,1.67,1.24,2.71,1.36.86.08,1.73.08,2.59,0h.46c.12-.04.25-.04.37,0v.37c.15,1.73.15,3.48,0,5.21h0v.92c-.11.32-.11.67,0,.99.18.4.65.55,1.05.71.77.24,1.57.38,2.37.4,1.71-.17,3.35-.75,4.78-1.7-.12-2.97.03-5.94.46-8.88.85-3.73,1.23-7.55,1.14-11.37-.1-1.5-.65-2.94-1.57-4.13-1.51-1.44-3.56-2.18-5.64-2.03-2.73-.05-5.42.69-7.74,2.13-.86.59-.96,1.33-1.17,2.28-.28,1.51-.52,3.08-.68,4.53-.21,1.72-.32,3.45-.34,5.18-.1,1.45.32,2.88,1.2,4.04Z"/><path class="cls-10_data-settings-55" d="M314.48,206.13c1.99-.04,3.98.17,5.92.62,2.56,1.29,3.77,4.29,2.81,7,.74.28.86-1.08,1.45-1.6s1.85.18,1.94,1.11c-.04.93-.31,1.83-.8,2.62-.71,1.63-.83,3.47-.34,5.18,0,.43.4.89.8.8s.71-.8.96-1.11c.4-.47.83-.91,1.29-1.33.89-.77,1.88-1.48,2.81-2.25,1.87-1.58,3.14-3.76,3.61-6.17.05-.51.17-1.01.37-1.48.59-.86,1.5-1.45,2.53-1.63.09-1.39.81-2.65,1.94-3.45l-2.37-.22c.4-.57.64-1.22.71-1.91-1.7.13-3.37-.45-4.62-1.6-1.33-1.05-2.37-2.37-3.64-3.48-2.41-2.13-5.5-3.34-8.72-3.39-3.24-.02-6.34,1.32-8.54,3.7-1.34,1.35-2.05,3.19-1.97,5.09.28,2.59,1.91,3.3,3.88,3.51Z"/><path class="cls-12_data-settings-55" d="M316.79,222.44h.46c.12-.04.25-.04.37,0v.37c.15,1.73.15,3.48,0,5.21h0c3.17-.9,5.28-3.89,5.06-7.18-1.89.78-3.85,1.35-5.86,1.73l-.03-.12Z"/><path class="cls-15_data-settings-55 targetColor" d="M266.79,253.91c2.43,3.45,5.45,6.46,8.91,8.88,2.49,1.72,5.37,2.78,8.38,3.08.39.07.78.07,1.17,0,.64-.19,1.2-.58,1.6-1.11,1.26-1.49,2.02-3.35,2.16-5.3-.27-3.42-2.27-6.47-5.3-8.08,0,0-12.58-4.01-14.06-3.36-.83.37-1.6,2.13-2.16,3.67s-.71,2.22-.71,2.22Z" style="fill: rgb(104, 225, 253);"/><path class="cls-1_data-settings-55" d="M275.7,262.79c2.49,1.72,5.37,2.78,8.38,3.08.39.07.78.07,1.17,0h.55c3.82.74,8.82-2.16,12.33-4.69h0l-1.17-7.64c-2.29,2.38-4.95,4.36-7.89,5.86-2.07,1.1-4.43,1.53-6.75,1.23-.63-.1-1.24-.29-1.82-.55-4.69-2.22-9.06-5.05-13.01-8.42-.43,1.29-.71,2.4-.71,2.4"/><path class="cls-14_data-settings-55" d="M269.13,245l-.28-.52c-.45-.62-.96-1.19-1.51-1.73-1.02-1.17-2.19-2.21-3.48-3.08-1.5-.76-3.04-1.42-4.62-1.97-.56-.3-1.21-.37-1.82-.22-.66.33-1.01,1.07-.83,1.79.2.69.68,1.27,1.33,1.6.34.18.77.43.74.83-.03.18-.1.35-.22.49-.46.86-.69,1.83-.68,2.81-.15,1.56-.04,3.13.31,4.65.34,1.54,1.23,2.91,2.5,3.85.8.56,1.68.98,2.62,1.23,3.33.83,5.89,0,6.72-3.58.32-1.73.16-3.51-.46-5.15-.09-.52-.09-.71-.31-1.02Z"/><path class="cls-14_data-settings-55" d="M312.13,218.55c-1.63-.15-3.12.93-3.48,2.53,0,.71,0,1.48-.18,2.19-.31,1.51-1.63,2.62-2.28,4.04-.79,1.82-.36,3.94,1.08,5.3,1.07.82,2.32,1.4,3.64,1.7.33.06.66.06.99,0,.4-.08.77-.24,1.11-.46,1.55-1.39,2.52-3.32,2.71-5.39.62-3.55,1.6-9.22-3.58-9.9Z"/><path class="cls-15_data-settings-55 targetColor" d="M311.21,249.96c1.15,4.64,3.25,9,6.17,12.79,2.94,3.85,7.49,6.12,12.33,6.17,5.38-.51,10.09-3.86,12.33-8.79,2.14-4.84,2.83-10.19,1.97-15.41-.18-2.69-1.03-5.29-2.5-7.55-1.53-2.29-4.24-3.49-6.97-3.08-2.5.82-4.48,2.76-5.36,5.24-1.02,2.47-1.48,5.15-2.65,7.52l-4.56-9.71c-.87-2.28-2.18-4.38-3.85-6.17-2.47-2.35-6.37-2.25-8.72.22-.8.85-1.35,1.9-1.58,3.05-.46,4.78,2.1,11.25,3.39,15.72Z" style="fill: rgb(104, 225, 253);"/><rect class="cls-13_data-settings-55" x="170.12" y="227.64" width="116.31" height="116.31"/><rect class="cls-4_data-settings-55 targetColor" x="184.91" y="256.41" width="80.58" height="58.48" rx="3.79" ry="3.79" style="fill: rgb(104, 225, 253);"/><polygon class="cls-13_data-settings-55" points="188.64 281.04 201.5 269.11 219.19 290.44 234.7 276.87 241.14 282.39 255.54 263.16 262.84 271.97 262.84 310.63 188.64 310.63 188.64 281.04"/><polygon class="cls-15_data-settings-55 targetColor" points="219.16 290.99 201.44 269.66 188.92 281.34 188.37 280.76 201.53 268.52 219.25 289.88 234.7 276.35 241.08 281.84 255.51 262.51 263.15 271.73 262.53 272.22 255.54 263.8 241.2 282.98 234.7 277.4 219.16 290.99" style="fill: rgb(104, 225, 253);"/><circle class="cls-15_data-settings-55 targetColor" cx="262.94" cy="271.7" r="1.63" style="fill: rgb(104, 225, 253);"/><circle class="cls-15_data-settings-55 targetColor" cx="241.14" cy="282.39" r="1.63" style="fill: rgb(104, 225, 253);"/><circle class="cls-15_data-settings-55 targetColor" cx="188.64" cy="281.04" r="1.63" style="fill: rgb(104, 225, 253);"/><circle class="cls-15_data-settings-55 targetColor" cx="234.7" cy="276.87" r="1.63" style="fill: rgb(104, 225, 253);"/><circle class="cls-15_data-settings-55 targetColor" cx="201.5" cy="269.11" r="1.63" style="fill: rgb(104, 225, 253);"/><circle class="cls-15_data-settings-55 targetColor" cx="219.19" cy="290.44" r="1.63" style="fill: rgb(104, 225, 253);"/><circle class="cls-15_data-settings-55 targetColor" cx="255.69" cy="263.16" r="1.63" style="fill: rgb(104, 225, 253);"/><path class="cls-14_data-settings-55" d="M257.02,227.46c-.27,1.28.11,2.61,1.02,3.55.78.68,1.81.99,2.84.86,1.03-.13,1.97-.64,2.65-1.42.41.41.94.68,1.51.77.61.06,1.17-.31,1.36-.89,0-.65-.4-1.2-.62-1.85s0-1.02-.34-1.48c-.44-.73-1.17-1.24-2-1.42-2.13-.62-5.95-.77-6.41,1.88Z"/></g><g id="icon_2_data-settings-55"><circle class="cls-15_data-settings-55 targetColor" cx="310.53" cy="129.68" r="34.86" style="fill: rgb(104, 225, 253);"/><g id="G8KHDO_data-settings-55"><path class="cls-13_data-settings-55" d="M287.63,142.16c-.01-.43.15-.84.46-1.14.68-.7,1.16-1.56,1.42-2.5.22-1.18-.26-2.38-1.23-3.08-.62-.46-1.32-.8-2.07-.99-.79-.21-1.31-.97-1.2-1.79v-1.48c.08-.94.91-1.64,1.85-1.57.71-.02,1.42-.19,2.07-.49,1.61-.52,2.51-2.24,2-3.85-.19-.64-.43-1.27-.71-1.88-.32-.73-.11-1.58.52-2.07.37-.28.77-.55,1.11-.86.67-.54,1.62-.54,2.28,0,.53.54,1.17.97,1.88,1.26,1.34.61,2.93.19,3.79-1.02.48-.66.85-1.4,1.08-2.19.25-.77,1.02-1.24,1.82-1.11l1.51.22c.82.08,1.44.78,1.42,1.6.05.94.3,1.85.74,2.68.66,1.14,1.97,1.74,3.27,1.48.71-.14,1.4-.39,2.03-.74.79-.45,1.8-.19,2.28.59.28.43.65.8.96,1.23.43.63.35,1.47-.18,2-.56.58-1,1.26-1.29,2-.66,1.52,0,3.29,1.48,4.01.54.3,1.11.54,1.7.74.72.21,1.2.88,1.17,1.63,0,.59,0,1.2-.22,1.79-.1.81-.79,1.41-1.6,1.39-.88.03-1.74.24-2.53.62-1.19.61-1.85,1.92-1.63,3.24.1.76.34,1.49.71,2.16.49.76.27,1.77-.49,2.26-.01,0-.02.02-.04.02l-1.02.8c-.64.62-1.67.62-2.31,0-.6-.57-1.32-1.01-2.1-1.29-1.34-.48-2.82.02-3.61,1.2-.44.64-.79,1.35-1.02,2.1-.23.74-.96,1.2-1.73,1.11l-1.76-.31c-.72-.14-1.25-.75-1.29-1.48-.04-.89-.25-1.77-.62-2.59-.63-1.32-2.1-2.01-3.51-1.66-.68.2-1.35.45-2,.74-.67.35-1.5.2-2-.37-.4-.45-.77-.92-1.11-1.42-.15-.29-.28-.6-.37-.92l.09-.06ZM301.41,128.35c-2.98-.02-5.41,2.38-5.43,5.36h0c.05,2.9,2.34,5.26,5.24,5.39,2.97.27,5.59-1.92,5.86-4.88s-1.92-5.59-4.88-5.86c-.26-.02-.53-.03-.79-.01Z"/><path class="cls-13_data-settings-55" d="M328.47,126.57c.02.21.02.41,0,.62-.02.54-.4,1-.92,1.11l-1.11.28c-.6.16-1.23-.14-1.48-.71-.24-.45-.51-.88-.8-1.29-.8-1.04-2.29-1.24-3.33-.45-.03.02-.06.05-.09.08-.36.28-.7.59-1.02.92-.39.47-1.05.58-1.57.28l-.92-.55c-.63-.3-.89-1.06-.59-1.69h0c.16-.53.27-1.07.31-1.61.07-1.22-.82-2.29-2.03-2.44-.57-.03-1.15-.03-1.73,0-.59-.03-1.08-.49-1.14-1.08-.04-.31-.11-.62-.22-.92-.19-.62.11-1.29.71-1.54.54-.27,1.05-.62,1.51-1.02.81-.75.94-1.99.31-2.9-.28-.41-.6-.8-.96-1.14-.61-.4-.79-1.22-.39-1.83.02-.04.05-.07.08-.11.18-.25.31-.52.49-.8.3-.57.99-.8,1.57-.52.65.26,1.34.36,2.03.31.95-.03,1.76-.7,1.97-1.63.14-.61.2-1.23.18-1.85-.03-.58.32-1.11.86-1.33l1.23-.31c.62-.15,1.25.18,1.48.77.27.67.71,1.26,1.26,1.73.92.73,2.24.66,3.08-.15.34-.26.65-.54.92-.86.39-.47,1.06-.6,1.6-.31l1.08.62c.51.33.72.98.49,1.54-.25.58-.37,1.22-.34,1.85-.01,1.15.83,2.13,1.97,2.28.52.03,1.05.03,1.57,0,.65-.07,1.25.39,1.33,1.05,0,.37.18.74.25,1.11.15.57-.16,1.15-.71,1.36-.59.26-1.13.64-1.57,1.11-.72.69-.88,1.79-.37,2.65.32.52.7,1,1.14,1.42.55.4.68,1.17.28,1.72,0,0,0,0,0,0,0,.31-.34.59-.49.86-.3.61-1.04.87-1.66.59-.77-.34-1.63-.4-2.44-.18-.83.23-1.45.91-1.6,1.76-.03.41-.03.82,0,1.23h-.25ZM323.91,112.42c-2.21-.02-4.02,1.76-4.04,3.98,0,.02,0,.04,0,.06,0,2.23,1.81,4.04,4.04,4.04s4.04-1.81,4.04-4.04c.02-2.21-1.76-4.02-3.98-4.04-.02,0-.04,0-.06,0Z"/></g></g><g id="icon_1_data-settings-55"><circle class="cls-15_data-settings-55 targetColor" cx="399.86" cy="182.58" r="52.93" style="fill: rgb(104, 225, 253);"/><polyline class="cls-16_data-settings-55" points="366.57 156.78 366.57 202.98 436.42 202.98"/><rect class="cls-13_data-settings-55" x="376.25" y="187.32" width="11.78" height="15.66"/><rect class="cls-13_data-settings-55" x="395.61" y="171.63" width="11.78" height="31.35"/><rect class="cls-13_data-settings-55" x="413.27" y="158.29" width="11.78" height="44.7"/></g><g id="plant_data-settings-55"><polygon class="cls-15_data-settings-55 targetColor" points="422.31 360.1 373.14 360.1 380.38 394.97 415.22 394.97 422.31 360.1" style="fill: rgb(104, 225, 253);"/><polygon class="cls-5_data-settings-55" points="422.31 360.1 373.14 360.1 380.38 394.97 415.22 394.97 422.31 360.1"/><path class="cls-15_data-settings-55 targetColor" d="M366.3,275.67c-1.12,2.5-1.63,5.24-1.48,7.98-.73,12.49.76,25.02,4.41,36.99,6.01,17.23,19.17,30.83,31.94,43.96-.96-1.48,1.54-9.43,1.82-11.34.62-3.7,1.29-7.4,1.97-11.1.62-5.94-.08-11.93-2.03-17.57-3.58-12.83-10.15-24.63-19.17-34.43-5.1-5.64-10.97-10.52-17.45-14.49Z" style="fill: rgb(104, 225, 253);"/><path class="cls-8_data-settings-55" d="M366.3,275.67c-1.12,2.5-1.63,5.24-1.48,7.98-.73,12.49.76,25.02,4.41,36.99,6.01,17.23,19.17,30.83,31.94,43.96-.96-1.48,1.54-9.43,1.82-11.34.62-3.7,1.29-7.4,1.97-11.1.62-5.94-.08-11.93-2.03-17.57-3.58-12.83-10.15-24.63-19.17-34.43-5.1-5.64-10.97-10.52-17.45-14.49Z"/><path class="cls-15_data-settings-55 targetColor" d="M422.68,315.93c4.29-9.23,7.33-19,9.03-29.04,1.66-10.15-.83-20.55-6.91-28.85l-22.66,36.99c-4.75,6.86-8.39,14.42-10.79,22.41-3.48,14.18.71,35.67,10.45,46.76,5.18-4.72,7.34-15.26,10.02-21.76l10.85-26.51Z" style="fill: rgb(104, 225, 253);"/><path class="cls-9_data-settings-55" d="M422.68,315.93c4.29-9.23,7.33-19,9.03-29.04,1.66-10.15-.83-20.55-6.91-28.85l-22.66,36.99c-4.75,6.86-8.39,14.42-10.79,22.41-3.48,14.18.71,35.67,10.45,46.76,5.18-4.72,7.34-15.26,10.02-21.76l10.85-26.51Z"/><path class="cls-15_data-settings-55 targetColor" d="M371.38,348.11h52.71c4.41,0,7.98,3.57,7.98,7.97h0c0,4.4-3.57,7.97-7.98,7.97h-52.71c-4.41,0-7.98-3.57-7.98-7.97h0c0-4.4,3.57-7.97,7.98-7.97Z" style="fill: rgb(104, 225, 253);"/></g></svg>