<svg id="_0515_data_storage" xmlns="http://www.w3.org/2000/svg" xmlns:xlink="http://www.w3.org/1999/xlink" viewBox="0 0 500 500" data-imageid="data-storage-41-e1f94" imageName="Data Storage" class="illustrations_image" style="width: 144px;"><defs><style>.cls-1_data-storage-41-e1f94{opacity:.31;}.cls-1_data-storage-41-e1f94,.cls-2_data-storage-41-e1f94,.cls-3_data-storage-41-e1f94,.cls-4_data-storage-41-e1f94,.cls-5_data-storage-41-e1f94,.cls-6_data-storage-41-e1f94,.cls-7_data-storage-41-e1f94,.cls-8_data-storage-41-e1f94,.cls-9_data-storage-41-e1f94,.cls-10_data-storage-41-e1f94,.cls-11_data-storage-41-e1f94,.cls-12_data-storage-41-e1f94,.cls-13_data-storage-41-e1f94,.cls-14_data-storage-41-e1f94,.cls-15_data-storage-41-e1f94{stroke-width:0px;}.cls-1_data-storage-41-e1f94,.cls-2_data-storage-41-e1f94,.cls-4_data-storage-41-e1f94,.cls-15_data-storage-41-e1f94{isolation:isolate;}.cls-1_data-storage-41-e1f94,.cls-4_data-storage-41-e1f94,.cls-14_data-storage-41-e1f94,.cls-15_data-storage-41-e1f94{fill:#68e1fd;}.cls-2_data-storage-41-e1f94{fill:#020202;opacity:.1;}.cls-3_data-storage-41-e1f94{fill:url(#linear-gradient);}.cls-4_data-storage-41-e1f94{opacity:.18;}.cls-16_data-storage-41-e1f94{opacity:.41;}.cls-17_data-storage-41-e1f94,.cls-15_data-storage-41-e1f94{opacity:.5;}.cls-5_data-storage-41-e1f94{fill:url(#linear-gradient-4-data-storage-41-e1f94);}.cls-6_data-storage-41-e1f94{fill:url(#linear-gradient-2-data-storage-41-e1f94);}.cls-7_data-storage-41-e1f94{fill:url(#linear-gradient-3-data-storage-41-e1f94);}.cls-8_data-storage-41-e1f94{fill:url(#linear-gradient-5-data-storage-41-e1f94);}.cls-9_data-storage-41-e1f94{fill:url(#linear-gradient-6-data-storage-41-e1f94);}.cls-10_data-storage-41-e1f94{fill:#473f47;}.cls-11_data-storage-41-e1f94{fill:#dc9e93;}.cls-12_data-storage-41-e1f94{fill:#fff;}.cls-13_data-storage-41-e1f94{fill:#fbb8aa;}</style><linearGradient id="linear-gradient-data-storage-41-e1f94" x1="683.38" y1="-218.64" x2="562.64" y2="-235.02" gradientTransform="translate(-496.86 466.45)" gradientUnits="userSpaceOnUse"><stop offset="0" stop-color="#231f20"/><stop offset=".08" stop-color="#231f20" stop-opacity=".69"/><stop offset=".21" stop-color="#231f20" stop-opacity=".32"/><stop offset="1" stop-color="#231f20" stop-opacity="0"/></linearGradient><linearGradient id="linear-gradient-2-data-storage-41-e1f94" x1="-5305.71" y1="-238.31" x2="-5162.79" y2="-137.01" gradientTransform="translate(-5061.06 466.44) rotate(-180) scale(1 -1)" xlink:href="#linear-gradient-data-storage-41-e1f94"/><linearGradient id="linear-gradient-3-data-storage-41-e1f94" x1="723.66" y1="-230.07" x2="699.13" y2="-72.57" gradientTransform="translate(-478.29 483.03)" xlink:href="#linear-gradient-data-storage-41-e1f94"/><linearGradient id="linear-gradient-4-data-storage-41-e1f94" x1="742.8" y1="-206.18" x2="718.29" y2="-48.68" gradientTransform="translate(-478.29 483.03)" xlink:href="#linear-gradient-data-storage-41-e1f94"/><linearGradient id="linear-gradient-5-data-storage-41-e1f94" x1="744.02" y1="-227.95" x2="714.36" y2="-37.55" gradientTransform="translate(-478.29 483.03)" xlink:href="#linear-gradient-data-storage-41-e1f94"/><linearGradient id="linear-gradient-6-data-storage-41-e1f94" x1="872" y1="-316.36" x2="749.79" y2="-96.03" xlink:href="#linear-gradient-data-storage-41-e1f94"/></defs><g id="background_data-storage-41-e1f94"><path class="cls-4_data-storage-41-e1f94 targetColor" d="M106.83,415.85c38.5,18.82,88.37,11.58,129.25,5.89,32.4-4.62,55.67-11.78,88.37-8.04,34.51,3.92,69.44,1.54,103.1-7.01,14.11-3.56,28.25-8.42,39.62-17.5,11.37-9.07,19.65-23.09,18.65-37.62-1.38-19.76-18.29-34.2-29.46-50.46-33.08-47.69-18.14-113.73-38.29-168.1-26.14-70.43-104.42-106.34-174.85-80.2-4.25,1.58-8.41,3.36-12.48,5.36-44.18,21.56-73.96,60.21-116.2,84.83-22.86,13.31-47.95,23.83-66.3,42.95-20.3,21.03-30.19,50.84-30.04,80.06.15,29.22,9.63,57.88,23.89,83.45,14.26,25.57,33.7,48.78,58.91,63.39,2,1.03,3.92,2.03,5.86,3Z" style="fill: rgb(104, 225, 253);"/><path class="cls-4_data-storage-41-e1f94 targetColor" d="M95.93,360.77c-7.04,1-16.32,6.19-13.08,12.55,1.9,2.66,4.85,4.39,8.1,4.74,16.66,4.19,33.59,7.26,50.66,9.19,30.93,3.51,62.15,3.27,93.26,2.95l90.46-.77c35.35-.29,71.19-.62,106.22-6.36-2.95-14.73-20.32-20.91-35.2-22.53-36.82-4.06-74.46,3.12-110.75-4.15-18.56-3.74-36.85-11.25-55.76-9.75-20.32,1.59-34.49,12.34-55.14,10.49-26.04-2.33-53.02-.09-78.76,3.65Z" style="fill: rgb(104, 225, 253);"/></g><g id="character_data-storage-41-e1f94"><path class="cls-13_data-storage-41-e1f94" d="M139.41,366.75c-.05,1.85.3,3.69,1.03,5.39.9,1.59,2.27,2.87,3.92,3.65,3.54,1.85,7.65,2.27,11.49,1.15.53-.1,1-.4,1.33-.82.21-.33.29-.73.24-1.12-.28-2.11-1.33-4.04-2.95-5.42-1.64-1.33-3.04-2.93-4.12-4.74-1.77-3.56-.47-13.02-7.16-11.49-5.66,1.27-3.92,9.43-3.77,13.4Z"/><path class="cls-14_data-storage-41-e1f94 targetColor" d="M138.49,373.02s-.97,2.36.21,3.71,13.23,8.84,21.36,2.95c8.13-5.89-11.05-6.66-11.05-6.66h-10.52Z" style="fill: rgb(104, 225, 253);"/><path class="cls-12_data-storage-41-e1f94" d="M138.96,367.69c.76-.36,1.66-.12,2.15.56,1.61,1.83,4.04,2.71,6.45,2.33,2.65-.65,3.71-3.68,5.01-3.68s8.31,5.89,8.84,8.51c.53,2.62-3.18,4.42-7.13,4.68s-12.93-2.5-14.73-4.57c-1.46-2.36-1.68-5.28-.59-7.84Z"/><path class="cls-13_data-storage-41-e1f94" d="M116.43,370.37c-.04,1.86.3,3.7,1,5.42.92,1.59,2.29,2.86,3.95,3.65,3.54,1.83,7.66,2.23,11.49,1.12.53-.09,1-.38,1.33-.8.19-.35.28-.75.24-1.15-.28-2.1-1.33-4.02-2.95-5.39-1.62-1.35-3.02-2.94-4.15-4.71-1.74-3.56-.44-13.02-7.13-11.52-5.68,1.3-3.92,9.46-3.77,13.37Z"/><path class="cls-14_data-storage-41-e1f94 targetColor" d="M115.52,376.82s-.94,2.33.21,3.71,13.2,8.84,21.33,2.95c8.13-5.89-11.02-6.8-11.02-6.8l-10.52.15Z" style="fill: rgb(104, 225, 253);"/><path class="cls-12_data-storage-41-e1f94" d="M115.99,371.37c.76-.38,1.68-.14,2.15.56,1.6,1.84,4.05,2.71,6.45,2.3,2.62-.62,3.71-3.65,4.98-3.68s8.34,5.89,8.84,8.51c.5,2.62-3.18,4.45-7.13,4.68s-12.93-2.47-14.73-4.57c-1.45-2.35-1.66-5.27-.56-7.81Z"/><path class="cls-10_data-storage-41-e1f94" d="M111.57,271.49s-1.24,68.84,3.86,91.78l12.96,1.59,8.84-94.26-25.66.88Z"/><path class="cls-10_data-storage-41-e1f94" d="M151.63,264.04s6.07,37.11-1.3,96.73l-12.96,1.62-8.84-94.26,23.09-4.09Z"/><path class="cls-14_data-storage-41-e1f94 targetColor" d="M166.77,234.4c-.15,2.47-.94,4.65-3.12,5.36h-.56c-3.98.8-9.19-2.21-12.81-4.86-1.51-1.01-2.97-2.1-4.36-3.27v-26.51l19.32,19.79c1,3.06,1.52,6.26,1.53,9.48Z" style="fill: rgb(104, 225, 253);"/><path class="cls-14_data-storage-41-e1f94 targetColor" d="M150.42,234.93c0,1.24.18,2.5.18,3.74,0,6.86-1.59,13.96.44,20.62.71,1.47.92,3.14.59,4.74-.62,1.24-1.67,2.22-2.95,2.77-6.25,2.95-12.99,4.75-19.88,5.3-5.13.71-12.43,2.24-17.17-.53-1.81-1.34-3.02-3.34-3.36-5.57-1.82-7.09-2.9-14.34-3.21-21.65,0-.97-.15-1.91-.18-2.95-.41-6.6-.53-13.17-.41-19.76,0-4.77.47-9.93,3.59-13.52,5.01-4.82,11.37-8,18.23-9.1,1.94-.41,3.92-.51,5.89-.32,2.84.44,5.58,1.37,8.1,2.74,3.01,1.07,5.55,3.15,7.19,5.89,1.64,3.46,2.78,7.12,3.39,10.9.61,3.45.76,6.97.44,10.46-.18,1.74-.62,3.48-.8,5.21-.06.34-.09.69-.09,1.03Z" style="fill: rgb(104, 225, 253);"/><path class="cls-2_data-storage-41-e1f94" d="M122.41,273.82c-2,.59-6.6-1.24-8.13-1.5-.91,0-1.74-.62-2.65-.82-4.54-1.15-5.07-13.93-5.51-17.35-1.57-9.14-2.61-18.37-3.12-27.63-.22-3.51.19-7.03,1.21-10.4,1.03-3.42,3.52-6.2,6.8-7.6,5.89-2.09,7.54,16.29,8.34,20.09,1,4.77,2.03,9.54,2.95,14.29.71,3.51.32,6.27,2.95,8.84.19.2.44.35.71.41.25,0,.49-.06.71-.18,1.16-.51,2.39-.79,3.65-.85,1.24-.26,2.46.53,2.73,1.77.02.1.03.19.04.29.74,3.33-.65,6.76-3.51,8.63-1.24.8-2.65,1.21-3.92,1.97-4.68,2.95-.77,5.89-2.62,9.43-.12.27-.34.49-.62.62Z"/><path class="cls-13_data-storage-41-e1f94" d="M136.4,193.34c-.76.83-1.82,1.32-2.95,1.38-.89.09-1.79.09-2.68,0h-.5c-.12-.04-.26-.04-.38,0-.04.13-.04.28,0,.41-.16,1.79-.16,3.6,0,5.39h0v.97c.1.34.1.69,0,1.03-.25.38-.64.63-1.09.71-.79.27-1.61.41-2.44.44-1.78-.17-3.49-.78-4.98-1.77.11-3.08-.05-6.17-.5-9.22-.87-3.87-1.26-7.82-1.18-11.78-.01-3.58,2.88-6.49,6.46-6.5.35,0,.71.03,1.05.08,2.84-.05,5.63.71,8.04,2.21.73.58,1.17,1.45,1.21,2.39.29,1.56.56,3.12.71,4.71.15,1.59.32,3.59.35,5.39.14,1.47-.26,2.95-1.12,4.15Z"/><path class="cls-13_data-storage-41-e1f94" d="M183.27,214.46c.18-.27.53-.56.8-.38.12.1.2.23.24.38.31.58.93.94,1.59.91h1.91c1.7.06,3.27.91,4.24,2.3.97,1.37,1.5,3,1.53,4.68.18,1.51-.23,3.03-1.15,4.24-1.77,1.45-4.08,2.06-6.33,1.68h-2.06c-1.02.13-1.96-.56-2.15-1.56-.85-2.03-2.39-4.09-1.33-6.16.71-2.11,1.62-4.15,2.71-6.1Z"/><path class="cls-10_data-storage-41-e1f94" d="M133.84,178.26c-.75.63-1.71.94-2.68.85-2.65-.18-3.8-1.83-5.89.74-.68.85-1.1,1.87-1.24,2.95,0,.24,0,2.95.24,2.95-.77.27-.91-1.12-1.5-1.68s-1.94.21-2.03,1.15c.03.97.33,1.92.85,2.74.7,1.71.83,3.6.35,5.39,0,.44-.44.94-.85.82s-.68-.82-.97-1.18c-.42-.48-.87-.93-1.35-1.35-1.47-1.3-3.98-2.3-5.07-3.83-.55-.82-.8-1.81-.68-2.8,0-.24.77-2.62,1.15-2.39-1.56-1.09-1.94-3.24-.84-4.8.32-.46.75-.83,1.25-1.09-.8-3.12.65-6.38,3.51-7.86,2.82-1.36,6.01-1.75,9.07-1.12,3.42.4,6.7,1.57,9.6,3.42,1,.61,1.85,1.45,2.47,2.44.64,1.02.75,2.28.29,3.39-.43.04-.84-.17-1.06-.53.09,1.15-.77,2.16-1.91,2.27-.87.1-1.71-.38-2.06-1.18-.17.27-.39.51-.65.71Z"/><path class="cls-11_data-storage-41-e1f94" d="M130.89,194.79h-.5c-.12-.04-.26-.04-.38,0-.04.13-.04.28,0,.41-.16,1.79-.16,3.6,0,5.39h0c-3.27-1.04-5.35-4.25-4.98-7.66,1.96.82,4.01,1.42,6.1,1.8l-.24.06Z"/><path class="cls-14_data-storage-41-e1f94 targetColor" d="M182.88,227.48c-2.53,3.6-5.67,6.73-9.28,9.25-2.63,1.78-5.67,2.85-8.84,3.12-.42.04-.84-.01-1.24-.15-.68-.17-1.27-.58-1.68-1.15-1.3-1.56-2.09-3.48-2.24-5.51-.21-5.3,5.54-8.39,5.54-8.39,0,0,13.08-4.15,14.73-3.48.85.35,1.68,2.21,2.24,3.8.56,1.59.77,2.5.77,2.5Z" style="fill: rgb(104, 225, 253);"/><path class="cls-2_data-storage-41-e1f94" d="M182.88,227.48c-2.53,3.6-5.67,6.73-9.28,9.25-2.63,1.78-5.67,2.85-8.84,3.12-.42.04-.84-.01-1.24-.15-.18.08-.37.14-.56.18-3.98.8-9.16-2.24-12.81-4.89l-4.36-1.56-1.24-12.34s10.49,9.78,15.05,11.96c2.15,1.15,4.6,1.6,7.01,1.3.64-.11,1.26-.3,1.86-.56,4.86-2.34,9.38-5.31,13.46-8.84.37.82.68,1.67.94,2.53Z"/><path class="cls-14_data-storage-41-e1f94 targetColor" d="M139.91,240.18l1.12-11.16c.07-.92.82-1.64,1.74-1.68l14.73-.74c1.03-.03,1.9.77,1.94,1.8.01.12.01.24,0,.35l-3.86,25.42c-.11.82-.77,1.46-1.59,1.56l-13.58,1.89c-1.02.12-1.95-.6-2.09-1.62-.01-.13-.01-.26,0-.38l1.59-15.43Z" style="fill: rgb(104, 225, 253);"/><path class="cls-12_data-storage-41-e1f94" d="M159.41,228.69l-3.83,25.42c-.13.81-.78,1.44-1.59,1.56l-13.49,1.89h0c-1.01.16-1.96-.54-2.12-1.55,0-.01,0-.02,0-.04-.01-.15-.01-.29,0-.44l1.65-15.43,1-11.08c.1-.91.85-1.61,1.77-1.65l14.73-.74c.96-.04,1.79.67,1.91,1.62.02.15.01.3-.03.44Z"/><path class="cls-3_data-storage-41-e1f94" d="M159.41,228.69l-3.83,25.42c-.13.81-.78,1.44-1.59,1.56l-13.49,1.89c-.03-.15-.03-.3,0-.44l1.62-15.41,1.09-11.19c.09-.91.82-1.62,1.74-1.68l14.4-.71c.08.18.1.37.06.56Z"/><path class="cls-13_data-storage-41-e1f94" d="M135.4,240c.5-.61,1.28-.93,2.06-.85.44.21.85.47,1.24.77.37.17.77.27,1.18.27,1.64.11,3.29-.12,4.83-.68.78-.38,1.64-.59,2.5-.62,1.05.2,1.96.85,2.5,1.77,1.54,2.3,1.59,5.28.15,7.63-.65.94-1.51,1.72-2.5,2.27-2.2,1.16-4.64,1.77-7.13,1.8h-7.45c-.58.1-1.17.03-1.71-.21-.6-.56-.9-1.36-.82-2.18-.38-1.71-.14-3.49.68-5.04,1.44-1.8,3.03-3.21,4.48-4.92Z"/><path class="cls-14_data-storage-41-e1f94 targetColor" d="M108.12,208.07s-27.31,35.7-18.67,48.31c8.63,12.61,45.01-2.09,45.01-2.09l-3.53-10.43s-25.57,3.24-25.77.38c-.21-2.86,16.23-19.26,16.23-19.26,0,0,2.95-23.95-13.26-16.91Z" style="fill: rgb(104, 225, 253);"/></g><g id="cloud_data-storage-41-e1f94"><path class="cls-1_data-storage-41-e1f94 targetColor" d="M334.14,112.96c0,11.54-9.35,20.9-20.88,20.91h-53.64c-11.54.43-21.25-8.57-21.68-20.11-.43-11.54,8.57-21.25,20.11-21.68.52-.02,1.05-.02,1.57,0h7.72c-.03-.57-.03-1.14,0-1.71.62-10.59,9.71-18.67,20.3-18.05,9.46.56,17.1,7.93,17.99,17.37v.56c.03.57.03,1.14,0,1.71h7.69c11.52-.02,20.87,9.31,20.88,20.83,0,.02,0,.04,0,.06l-.06.12Z" style="fill: rgb(104, 225, 253);"/><path class="cls-12_data-storage-41-e1f94" d="M327.66,110.87c0,11.54-9.35,20.9-20.88,20.91h-53.67c-11.54-.43-20.55-10.14-20.11-21.68.41-10.93,9.18-19.7,20.11-20.11h7.72c-.03-.57-.03-1.14,0-1.71.83-10.57,10.08-18.47,20.65-17.64,9.42.74,16.9,8.22,17.64,17.64h0c.03.57.03,1.14,0,1.71h7.72c11.5.05,20.81,9.38,20.83,20.88Z"/><rect class="cls-14_data-storage-41-e1f94 targetColor" x="277.94" y="131.87" width="4.01" height="17.7" style="fill: rgb(104, 225, 253);"/><polygon class="cls-14_data-storage-41-e1f94 targetColor" points="329.66 175.91 325.65 175.91 325.65 151.57 232.69 151.57 232.69 175.91 228.69 175.91 228.69 147.57 329.66 147.57 329.66 175.91" style="fill: rgb(104, 225, 253);"/><rect class="cls-14_data-storage-41-e1f94 targetColor" x="277.94" y="149.57" width="4.01" height="26.36" style="fill: rgb(104, 225, 253);"/><rect class="cls-14_data-storage-41-e1f94 targetColor" x="319.53" y="175.91" width="15.43" height="15.43" style="fill: rgb(104, 225, 253);"/><rect class="cls-14_data-storage-41-e1f94 targetColor" x="272.22" y="175.91" width="15.43" height="15.43" style="fill: rgb(104, 225, 253);"/><rect class="cls-14_data-storage-41-e1f94 targetColor" x="223.3" y="175.91" width="15.43" height="15.43" style="fill: rgb(104, 225, 253);"/></g><g id="data_graphic_data-storage-41-e1f94"><rect class="cls-12_data-storage-41-e1f94" x="184.56" y="207.92" width="186.78" height="135.85"/><rect class="cls-14_data-storage-41-e1f94 targetColor" x="197.99" y="321.39" width="163.95" height="6.45" style="fill: rgb(104, 225, 253);"/><g class="cls-16_data-storage-41-e1f94"><rect class="cls-14_data-storage-41-e1f94 targetColor" x="259.88" y="271.7" width="15.91" height="13.87" style="fill: rgb(104, 225, 253);"/></g><rect class="cls-14_data-storage-41-e1f94 targetColor" x="244.09" y="260.91" width="15.91" height="24.63" style="fill: rgb(104, 225, 253);"/><g class="cls-17_data-storage-41-e1f94"><rect class="cls-14_data-storage-41-e1f94 targetColor" x="228.33" y="249.54" width="15.91" height="36.02" style="fill: rgb(104, 225, 253);"/></g><rect class="cls-14_data-storage-41-e1f94 targetColor" x="212.54" y="238.47" width="15.91" height="47.1" style="fill: rgb(104, 225, 253);"/><rect class="cls-14_data-storage-41-e1f94 targetColor" x="196.76" y="227.31" width="15.91" height="58.26" style="fill: rgb(104, 225, 253);"/><rect class="cls-6_data-storage-41-e1f94" x="196.76" y="227.31" width="15.91" height="58.26"/><rect class="cls-14_data-storage-41-e1f94 targetColor" x="197.99" y="297.29" width="163.95" height="6.45" style="fill: rgb(104, 225, 253);"/><rect class="cls-7_data-storage-41-e1f94" x="197.99" y="297.29" width="79.94" height="6.45"/><rect class="cls-5_data-storage-41-e1f94" x="217.14" y="321.15" width="79.94" height="6.45"/><rect class="cls-14_data-storage-41-e1f94 targetColor" x="197.99" y="309.34" width="163.95" height="6.45" style="fill: rgb(104, 225, 253);"/><rect class="cls-8_data-storage-41-e1f94" x="204.12" y="309.34" width="105.3" height="6.45"/><path class="cls-14_data-storage-41-e1f94 targetColor" d="M300.5,250.34c0-2.73.59-5.43,1.71-7.92l-11.78-6.42c-7.94,16.04-1.38,35.47,14.66,43.41.02.01.05.02.07.03,2.06,1,4.23,1.79,6.45,2.36l2.39-13.28c-8.01-2.43-13.49-9.81-13.49-18.17Z" style="fill: rgb(104, 225, 253);"/><path class="cls-15_data-storage-41-e1f94 targetColor" d="M347.39,266.98c-7.37,12.3-21.96,18.29-35.85,14.73l2.39-13.28c8.11,2.49,16.9-.71,21.5-7.84l11.96,6.39Z" style="fill: rgb(104, 225, 253);"/><path class="cls-9_data-storage-41-e1f94" d="M351.99,250.34c0,5.86-1.59,11.61-4.6,16.64l-11.78-6.45c5.69-8.84,3.14-20.62-5.7-26.32-8.84-5.69-20.62-3.14-26.32,5.7-.5.76-.93,1.55-1.3,2.39l-11.78-6.42c7.73-16.14,27.08-22.96,43.22-15.22,11.36,5.44,18.54,16.97,18.4,29.57l-.15.12Z"/></g></svg>