<svg width="1920" height="863" viewBox="0 0 1920 863" fill="none" xmlns="http://www.w3.org/2000/svg">
<path d="M-173.413 514.812C-118.77 481.161 114.491 216.273 988.973 364.915C1863.46 513.557 2103.77 400.428 2208.34 151.598" stroke="url(#paint0_linear_1_1811)" stroke-width="1.11256" stroke-miterlimit="10"/>
<path d="M-172.95 505.563C-120.906 473.496 118.524 221.811 985.74 373.943C1852.96 526.075 2099.61 380.712 2199.29 143.685" stroke="url(#paint1_linear_1_1811)" stroke-width="1.11256" stroke-miterlimit="10"/>
<path d="M-172.441 496.323C-123.005 465.86 122.534 227.46 982.6 383.366C1842.67 539.271 2095.66 361.737 2190.35 136.556" stroke="url(#paint2_linear_1_1811)" stroke-width="1.11256" stroke-miterlimit="10"/>
<path d="M-171.932 487.073C-125.092 458.212 126.533 233.112 979.46 392.779C1832.39 552.446 2091.71 342.752 2181.41 129.429" stroke="url(#paint3_linear_1_1811)" stroke-width="1.11256" stroke-miterlimit="10"/>
<path d="M-171.424 477.819C-127.192 450.562 130.541 238.747 976.318 402.178C1822.09 565.608 2087.76 323.753 2172.47 122.276" stroke="url(#paint4_linear_1_1811)" stroke-width="1.11256" stroke-miterlimit="10"/>
<path d="M-170.926 468.58C-129.29 442.926 134.541 244.409 973.156 411.604C1811.77 578.798 2083.78 304.78 2163.51 115.162" stroke="url(#paint5_linear_1_1811)" stroke-width="1.11256" stroke-miterlimit="10"/>
<path d="M-170.418 459.326C-131.389 435.276 138.551 250.055 970.016 421.013C1801.48 591.97 2079.83 285.791 2154.57 108.02" stroke="url(#paint6_linear_1_1811)" stroke-width="1.11256" stroke-miterlimit="10"/>
<path d="M-169.91 450.076C-133.477 427.628 142.56 255.694 966.874 430.415C1791.19 605.136 2075.88 266.796 2145.63 100.881" stroke="url(#paint7_linear_1_1811)" stroke-width="1.11256" stroke-miterlimit="10"/>
<path d="M-169.402 440.822C-135.576 419.978 146.558 261.342 963.734 439.824C1780.91 618.307 2071.91 247.808 2136.71 93.738" stroke="url(#paint8_linear_1_1811)" stroke-width="1.11256" stroke-miterlimit="10"/>
<path d="M-168.893 431.582C-137.663 412.341 150.568 266.991 960.583 449.249C1770.6 631.506 2067.95 228.835 2127.76 86.6219" stroke="url(#paint9_linear_1_1811)" stroke-width="1.11256" stroke-miterlimit="10"/>
<path d="M-168.385 422.33C-139.762 404.693 154.578 272.64 957.441 458.649C1760.3 644.659 2063.99 209.837 2118.82 79.4712" stroke="url(#paint10_linear_1_1811)" stroke-width="1.11256" stroke-miterlimit="10"/>
<path d="M-167.888 413.079C-141.872 397.046 158.564 278.279 954.29 468.061C1750.02 657.844 2060.03 190.851 2109.87 72.3428" stroke="url(#paint11_linear_1_1811)" stroke-width="1.11256" stroke-miterlimit="10"/>
<path d="M-167.379 403.837C-143.959 389.407 162.576 283.938 951.151 477.483C1739.73 671.028 2056.08 171.875 2100.93 65.2131" stroke="url(#paint12_linear_1_1811)" stroke-width="1.11256" stroke-miterlimit="10"/>
<path d="M-166.871 394.583C-146.058 381.757 166.584 289.573 947.997 486.883C1729.41 684.193 2052.12 152.887 2091.98 58.0725" stroke="url(#paint13_linear_1_1811)" stroke-width="1.11256" stroke-miterlimit="10"/>
<path d="M-166.363 385.332C-148.146 374.108 170.594 295.223 944.857 496.295C1719.12 697.368 2048.15 133.903 2083.04 50.9336" stroke="url(#paint14_linear_1_1811)" stroke-width="1.11256" stroke-miterlimit="10"/>
<path d="M-165.854 376.089C-150.244 366.469 174.593 300.871 941.718 505.716C1708.84 710.561 2044.2 114.925 2074.11 43.8131" stroke="url(#paint15_linear_1_1811)" stroke-width="1.11256" stroke-miterlimit="10"/>
<path d="M-165.346 366.839C-152.332 358.822 178.603 306.52 938.577 515.128C1698.55 723.736 2040.24 95.9301 2065.15 36.676" stroke="url(#paint16_linear_1_1811)" stroke-width="1.11256" stroke-miterlimit="10"/>
<path d="M-164.85 357.589C-154.443 351.176 182.601 312.171 935.412 524.533C1688.22 736.894 2036.28 76.9444 2056.22 29.5371" stroke="url(#paint17_linear_1_1811)" stroke-width="1.11256" stroke-miterlimit="10"/>
<path d="M-164.341 348.337C-156.53 343.526 186.599 317.809 932.273 533.944C1677.95 750.078 2032.32 57.9584 2047.27 22.4086" stroke="url(#paint18_linear_1_1811)" stroke-width="1.11256" stroke-miterlimit="10"/>
<path d="M-163.833 339.093C-158.629 335.887 190.609 323.466 929.133 543.364C1667.66 763.261 2028.37 38.9698 2038.33 15.2668" stroke="url(#paint19_linear_1_1811)" stroke-width="1.11256" stroke-miterlimit="10"/>
<path d="M-163.324 329.844C-160.716 328.241 194.619 329.107 925.992 552.767C1657.37 776.427 2024.4 19.9873 2029.39 8.14049" stroke="url(#paint20_linear_1_1811)" stroke-width="1.11256" stroke-miterlimit="10"/>
<path d="M-162.817 320.591C-162.817 320.591 198.628 334.753 922.839 562.178C1647.05 789.602 2020.44 0.999962 2020.44 0.999962" stroke="#0F3664" stroke-width="1.11256" stroke-miterlimit="10"/>
<path d="M-157.166 337.255C-155.987 335.716 210.376 321.941 922.223 547.866C1634.07 773.791 2005.69 42.014 2023.57 35.0533" stroke="#2584C3" stroke-width="1.11256" stroke-miterlimit="10"/>
<path d="M-151.515 353.932C-149.156 350.855 222.137 309.152 921.609 533.579C1621.08 758.006 1990.96 83.0296 2026.7 69.1095" stroke="#2584C3" stroke-width="1.11256" stroke-miterlimit="10"/>
<path d="M-145.863 370.599C-142.325 365.983 233.899 296.353 920.982 519.271C1608.07 742.19 1976.21 124.025 2029.84 103.166" stroke="#2584C3" stroke-width="1.11256" stroke-miterlimit="10"/>
<path d="M-140.214 387.261C-135.508 381.107 245.657 283.537 920.366 504.968C1595.08 726.4 1961.45 165.038 2032.96 137.218" stroke="#2584C3" stroke-width="1.11256" stroke-miterlimit="10"/>
<path d="M-134.563 403.929C-128.678 396.236 257.418 270.739 919.75 490.661C1582.08 710.583 1946.71 206.046 2036.09 171.265" stroke="#2584C3" stroke-width="1.11256" stroke-miterlimit="10"/>
<path d="M-128.901 420.593C-121.836 411.362 269.178 257.927 919.136 476.361C1569.09 694.796 1931.97 247.06 2039.22 205.319" stroke="#2584C3" stroke-width="1.11256" stroke-miterlimit="10"/>
<path d="M-123.252 437.255C-115.008 426.485 280.937 245.123 918.519 462.059C1556.1 678.995 1917.22 288.062 2042.35 239.371" stroke="#2584C3" stroke-width="1.11256" stroke-miterlimit="10"/>
<path d="M-117.6 453.922C-108.177 441.613 292.697 232.312 917.904 447.75C1543.11 663.188 1902.48 329.068 2045.47 273.418" stroke="#83C3F2" stroke-width="1.11256" stroke-miterlimit="10"/>
<path d="M-111.949 470.597C-101.347 456.75 304.458 219.521 917.288 433.45C1530.12 647.379 1887.73 370.083 2048.61 307.472" stroke="#83C3F2" stroke-width="1.11256" stroke-miterlimit="10"/>
<path d="M-106.299 487.263C-94.5165 471.877 316.219 206.72 916.662 419.152C1517.11 631.584 1872.99 411.098 2051.73 341.528" stroke="#83C3F2" stroke-width="1.11256" stroke-miterlimit="10"/>
<path d="M-100.648 503.929C-87.6865 487.005 327.978 193.91 916.046 404.843C1504.11 615.777 1858.24 452.094 2054.86 375.574" stroke="#83C3F2" stroke-width="1.11256" stroke-miterlimit="10"/>
<path d="M-94.9861 520.592C-80.8567 502.13 339.739 181.107 915.442 390.541C1491.15 599.975 1843.5 493.107 2058 409.637" stroke="#83C3F2" stroke-width="1.11256" stroke-miterlimit="10"/>
<path d="M-89.3358 537.258C-74.0271 517.258 351.498 168.296 914.814 376.233C1478.13 584.17 1828.75 534.113 2061.12 443.683" stroke="#83C3F2" stroke-width="1.11256" stroke-miterlimit="10"/>
<path d="M-83.6856 553.927C-67.1976 532.387 363.258 155.498 914.199 361.937C1465.14 568.375 1814.01 575.131 2064.26 477.741" stroke="#83C3F2" stroke-width="1.11256" stroke-miterlimit="10"/>
<path d="M-78.0351 570.589C-60.3677 547.51 375.019 142.693 913.583 347.623C1452.15 552.553 1799.26 616.121 2067.39 511.781" stroke="#83C3F2" stroke-width="1.11256" stroke-miterlimit="10"/>
<path d="M-72.384 587.255C-53.5372 562.638 386.779 129.882 912.957 333.326C1439.14 536.769 1784.51 657.139 2070.51 545.838" stroke="#83C3F2" stroke-width="1.11256" stroke-miterlimit="10"/>
<path d="M-66.7327 603.932C-46.7067 577.776 398.529 117.094 912.341 319.027C1426.15 520.96 1769.76 698.155 2073.64 579.894" stroke="#83C3F2" stroke-width="1.11256" stroke-miterlimit="10"/>
<path d="M-61.0705 620.594C-39.8651 592.9 410.299 104.279 911.738 304.725C1413.18 505.17 1755.04 739.167 2076.77 613.947" stroke="#83C3F2" stroke-width="1.11256" stroke-miterlimit="10"/>
<path d="M-55.4207 637.26C-33.0473 608.029 422.059 91.4791 911.11 290.417C1400.16 489.354 1740.28 780.163 2079.89 647.993" stroke="#83C3F2" stroke-width="1.11256" stroke-miterlimit="10"/>
<path d="M-49.7707 653.926C-26.218 623.156 433.82 78.6784 910.494 276.118C1387.17 473.557 1725.53 821.179 2083.02 682.048" stroke="#83C3F2" stroke-width="1.11256" stroke-miterlimit="10"/>
<path d="M-44.1205 670.59C-19.3885 638.281 445.578 65.8654 909.878 261.806C1374.18 457.747 1710.78 862.182 2086.16 716.102" stroke="#83C3F2" stroke-width="1.11256" stroke-miterlimit="10"/>
<defs>
<linearGradient id="paint0_linear_1_1811" x1="-106.973" y1="157.719" x2="2129.33" y2="576.294" gradientUnits="userSpaceOnUse">
<stop stop-color="#2584C3"/>
<stop offset="1" stop-color="#2584C3"/>
</linearGradient>
<linearGradient id="paint1_linear_1_1811" x1="-114.299" y1="163.602" x2="2129.58" y2="551.138" gradientUnits="userSpaceOnUse">
<stop stop-color="#2584C3"/>
<stop offset="1" stop-color="#2584C3"/>
</linearGradient>
<linearGradient id="paint2_linear_1_1811" x1="-121.254" y1="169.629" x2="2129.55" y2="524.984" gradientUnits="userSpaceOnUse">
<stop stop-color="#0F3664"/>
<stop offset="1" stop-color="#83C3F2"/>
</linearGradient>
<linearGradient id="paint3_linear_1_1811" x1="-127.759" y1="175.786" x2="2129.23" y2="498.605" gradientUnits="userSpaceOnUse">
<stop stop-color="#0F3664"/>
<stop offset="1" stop-color="#2584C3"/>
</linearGradient>
<linearGradient id="paint4_linear_1_1811" x1="-133.849" y1="182.024" x2="2128.12" y2="472.291" gradientUnits="userSpaceOnUse">
<stop stop-color="#0F3664"/>
<stop offset="1" stop-color="#0F3664"/>
</linearGradient>
<linearGradient id="paint5_linear_1_1811" x1="-139.467" y1="188.333" x2="2126.46" y2="445.563" gradientUnits="userSpaceOnUse">
<stop stop-color="#83C3F2"/>
<stop offset="1" stop-color="#2584C3"/>
</linearGradient>
<linearGradient id="paint6_linear_1_1811" x1="-144.639" y1="194.724" x2="2124.47" y2="418.93" gradientUnits="userSpaceOnUse">
<stop stop-color="#83C3F2"/>
<stop offset="1" stop-color="#83C3F2"/>
</linearGradient>
<linearGradient id="paint7_linear_1_1811" x1="-149.342" y1="201.137" x2="2121.67" y2="391.949" gradientUnits="userSpaceOnUse">
<stop stop-color="#0F3664"/>
<stop offset="1" stop-color="#83C3F2"/>
</linearGradient>
<linearGradient id="paint8_linear_1_1811" x1="-153.575" y1="207.587" x2="2118.53" y2="364.864" gradientUnits="userSpaceOnUse">
<stop stop-color="#0F3664"/>
<stop offset="1" stop-color="#0F3664"/>
</linearGradient>
<linearGradient id="paint9_linear_1_1811" x1="-157.505" y1="216.584" x2="2114.43" y2="340.533" gradientUnits="userSpaceOnUse">
<stop stop-color="#0F3664"/>
<stop offset="1" stop-color="#0F3664"/>
</linearGradient>
<linearGradient id="paint10_linear_1_1811" x1="-161.518" y1="241.569" x2="2109.18" y2="331.928" gradientUnits="userSpaceOnUse">
<stop stop-color="#2584C3"/>
<stop offset="1" stop-color="#2584C3"/>
</linearGradient>
<linearGradient id="paint11_linear_1_1811" x1="-164.528" y1="266.501" x2="2104.13" y2="323.512" gradientUnits="userSpaceOnUse">
<stop stop-color="#2584C3"/>
<stop offset="1" stop-color="#2584C3"/>
</linearGradient>
<linearGradient id="paint12_linear_1_1811" x1="-166.52" y1="291.297" x2="2098.79" y2="314.818" gradientUnits="userSpaceOnUse">
<stop stop-color="#2584C3"/>
<stop offset="1" stop-color="#0F3664"/>
</linearGradient>
<linearGradient id="paint13_linear_1_1811" x1="-167.523" y1="315.956" x2="2093.65" y2="306.323" gradientUnits="userSpaceOnUse">
<stop stop-color="#0F3664"/>
<stop offset="1" stop-color="#2584C3"/>
</linearGradient>
<linearGradient id="paint14_linear_1_1811" x1="-167.52" y1="340.398" x2="2088.22" y2="297.561" gradientUnits="userSpaceOnUse">
<stop stop-color="#83C3F2"/>
<stop offset="1" stop-color="#83C3F2"/>
</linearGradient>
<linearGradient id="paint15_linear_1_1811" x1="-166.528" y1="364.619" x2="2082.98" y2="288.762" gradientUnits="userSpaceOnUse">
<stop stop-color="#2584C3"/>
<stop offset="1" stop-color="#2584C3"/>
</linearGradient>
<linearGradient id="paint16_linear_1_1811" x1="-164.594" y1="388.554" x2="2077.46" y2="280.201" gradientUnits="userSpaceOnUse">
<stop stop-color="#2584C3"/>
<stop offset="1" stop-color="#2584C3"/>
</linearGradient>
<linearGradient id="paint17_linear_1_1811" x1="-161.685" y1="412.17" x2="2071.89" y2="271.379" gradientUnits="userSpaceOnUse">
<stop stop-color="#2584C3"/>
<stop offset="1" stop-color="#2584C3"/>
</linearGradient>
<linearGradient id="paint18_linear_1_1811" x1="-157.855" y1="435.463" x2="2066.51" y2="262.79" gradientUnits="userSpaceOnUse">
<stop stop-color="#0F3664"/>
<stop offset="1" stop-color="#2584C3"/>
</linearGradient>
<linearGradient id="paint19_linear_1_1811" x1="-153.094" y1="458.343" x2="2060.84" y2="253.958" gradientUnits="userSpaceOnUse">
<stop stop-color="#0F3664"/>
<stop offset="1" stop-color="#2584C3"/>
</linearGradient>
<linearGradient id="paint20_linear_1_1811" x1="-147.452" y1="480.843" x2="2055.36" y2="245.379" gradientUnits="userSpaceOnUse">
<stop stop-color="#2584C3"/>
<stop offset="1" stop-color="#2584C3"/>
</linearGradient>
</defs>
</svg>
