<?xml version="1.0" standalone="no"?>
<svg viewBox="0 0 200 200" xmlns="http://www.w3.org/2000/svg">
  <path fill="#83C3F2" d="M25.6,-46.7C34.4,-39.2,43.7,-34.9,53.8,-27.6C63.9,-20.4,74.8,-10.2,77.6,1.6C80.4,13.4,75,26.8,68.8,40.8C62.6,54.8,55.5,69.3,43.9,78.4C32.3,87.4,16.1,91,0.8,89.5C-14.5,88.1,-28.9,81.6,-38.1,71.1C-47.3,60.7,-51.2,46.3,-59.7,33.7C-68.1,21.2,-81.1,10.6,-81.1,0C-81.2,-10.7,-68.3,-21.4,-59.4,-33C-50.4,-44.5,-45.3,-57.1,-36,-64.3C-26.8,-71.6,-13.4,-73.7,-2.5,-69.4C8.4,-65,16.8,-54.3,25.6,-46.7Z" transform="translate(100 100)" />
</svg>
