<?xml version="1.0" standalone="no"?>
<svg viewBox="0 0 200 200" xmlns="http://www.w3.org/2000/svg">
  <path fill="#83C3F2" d="M44.1,-71.2C57,-68.9,67.2,-56.8,74.2,-43.3C81.2,-29.8,84.9,-14.9,79.8,-2.9C74.7,9,60.8,18,53.1,30.3C45.5,42.7,44,58.2,36.2,69.9C28.4,81.5,14.2,89.2,1.3,87C-11.7,84.8,-23.3,72.7,-36.6,64.2C-49.8,55.7,-64.7,50.8,-69.7,40.7C-74.8,30.6,-70.1,15.3,-68.7,0.8C-67.3,-13.7,-69.3,-27.4,-62.6,-34.7C-55.9,-42,-40.6,-42.8,-28.7,-45.7C-16.8,-48.6,-8.4,-53.5,3.6,-59.8C15.6,-66,31.2,-73.5,44.1,-71.2Z" transform="translate(100 100)" />
</svg>
