<?xml version="1.0" standalone="no"?>
<svg viewBox="0 0 200 200" xmlns="http://www.w3.org/2000/svg">
  <path fill="#83C3F2" d="M38.8,-65.6C50.8,-60.2,61.5,-51,63.5,-39.4C65.5,-27.8,58.7,-13.9,59.5,0.4C60.2,14.8,68.5,29.5,64.3,37.3C60.2,45.1,43.6,46,30.8,54.3C18,62.6,9,78.4,-0.3,78.8C-9.6,79.3,-19.2,64.6,-26.4,53.1C-33.7,41.6,-38.7,33.4,-46.4,25.1C-54.1,16.8,-64.4,8.4,-70.8,-3.6C-77.1,-15.7,-79.3,-31.4,-73,-42C-66.7,-52.7,-51.8,-58.3,-38.2,-62.8C-24.6,-67.3,-12.3,-70.7,0.5,-71.6C13.4,-72.5,26.7,-71,38.8,-65.6Z" transform="translate(100 100)" />
</svg>
